<svg width="110" height="67" viewBox="0 0 110 67" fill="none" xmlns="http://www.w3.org/2000/svg">
<path d="M51.6807 0.5C53.9761 0.5 56.2685 0.498943 58.6104 0.525391C59.1487 0.583467 59.7286 0.615846 60.1777 0.65918C63.5951 0.988921 66.9656 1.59631 70.2891 2.44824C80.8732 5.16141 90.1106 10.2425 97.9912 17.6992C102.449 21.9169 106.132 26.7222 109.115 32.0527C109.185 32.1775 109.263 32.3044 109.341 32.4258C102.647 36.0886 95.9929 39.7464 89.3066 43.3467C85.1732 45.5724 81.1707 47.9147 76.9707 49.9492C71.6754 52.5143 66.4346 55.1984 61.1826 57.8262C60.8278 58.0037 60.4724 58.1888 60.0967 58.3809L59.3818 58.7461L60.0254 59.2266C61.1252 60.048 62.1885 60.8422 63.2471 61.6328C61.8029 63.7195 59.8541 65.1013 57.334 65.7207C56.8628 65.8365 56.4027 65.9018 55.8828 65.999C55.2639 65.999 54.654 65.9984 54.0039 65.9727C50.7406 65.5269 48.325 63.9685 46.5977 61.3213C47.7136 60.5526 48.7968 59.8067 49.8955 59.0498L50.5469 58.6016L49.8623 58.2061C49.7629 58.1485 49.6524 58.0805 49.5547 58.0293C44.8236 55.5526 40.094 53.0639 35.3506 50.6045C35.0798 50.4641 34.8118 50.3128 34.5361 50.1562C34.2627 50.0009 33.9796 49.8392 33.6924 49.6865C33.1371 49.3914 32.5411 49.1167 31.8809 48.9482C21.4753 43.0863 11.07 37.2241 0.665039 31.3613C3.683 26.1759 7.39169 21.5202 11.7842 17.3848C16.5034 12.9417 21.791 9.29714 27.667 6.49805C34.8574 3.07288 42.4599 1.15473 50.4346 0.630859C50.8561 0.603166 51.2945 0.542029 51.6807 0.5ZM74.4258 45.2383C73.5145 45.9771 72.6819 46.6524 71.8496 47.3271C68.4624 50.0732 65.0752 52.8192 61.6523 55.5889L61.5986 55.6318L61.5586 55.6885C61.5429 55.7107 61.5275 55.7335 61.5117 55.7559L60.7148 56.8828L62.0479 56.5273C62.0699 56.5215 62.0847 56.5179 62.1035 56.5137C62.1223 56.5094 62.149 56.5042 62.1904 56.4971L62.2637 56.4844L62.3291 56.4512C66.5821 54.3242 70.836 52.1975 75.0889 50.0703C75.7372 49.746 76.3854 49.4196 77.0928 49.0645L77.6133 48.8027L77.2754 48.3281C76.551 47.3096 75.8554 46.3308 75.1484 45.3369L74.8398 44.9033L74.4258 45.2383ZM34.8057 44.668C34.0461 45.662 33.3006 46.638 32.5293 47.6475L32.1689 48.1191L32.6943 48.3936C34.8703 49.5325 36.9733 50.6337 39.125 51.7578V51.7568C41.9782 53.2533 44.8314 54.7506 47.6846 56.2471L48.0996 56.4648L48.3438 56.0645C48.3623 56.0341 48.3809 56.0031 48.3994 55.9727L48.6221 55.6064L48.2939 55.3301L35.5244 44.5889L35.124 44.252L34.8057 44.668ZM70.5488 41.5312C70.4451 41.6577 70.36 41.7587 70.2822 41.8564C69.2849 43.1099 68.2866 44.3635 67.29 45.6182C65.0028 48.4978 62.717 51.3774 60.3984 54.2822L60.3535 54.3379L60.3262 54.4043C60.3156 54.4301 60.3055 54.4567 60.2949 54.4824L59.8027 55.6816L60.9727 55.123C60.9897 55.1149 60.9963 55.1113 61.0059 55.1074C61.0158 55.1033 61.0338 55.0965 61.0664 55.0859L61.1553 55.0576L61.2266 54.999C65.444 51.5843 69.6619 48.1693 73.9248 44.7178L74.373 44.3555L73.9502 43.9629C73.0349 43.1138 72.163 42.3048 71.2754 41.4814L70.8857 41.1201L70.5488 41.5312ZM38.8799 40.9199C37.9309 41.7357 37.0072 42.5303 36.0723 43.334L35.6484 43.6973L36.0566 44.0781C36.1517 44.1667 36.2207 44.2349 36.2793 44.2842C39.5403 47.0273 42.801 49.7717 46.0645 52.5127C46.9828 53.284 47.8965 54.0341 48.8232 54.8311L48.8564 54.8594L49.0078 55.0977L49.3643 54.999C49.3806 54.9945 49.3976 54.9899 49.4141 54.9854L49.9043 54.8486L49.7881 54.459L49.8193 54.3867L49.6895 54.2021C49.6885 54.2007 49.6885 54.1987 49.6875 54.1973C49.6845 54.1928 49.6801 54.1876 49.6758 54.1816L49.6592 54.1582C49.643 54.1351 49.6273 54.1129 49.5859 54.0498L49.5762 54.0342L49.5645 54.0195C46.2574 49.6958 42.95 45.3718 39.6025 40.9951L39.2812 40.5752L38.8799 40.9199ZM65.9453 38.7578L62.291 46.2871C61.1783 48.5754 60.0659 50.8641 58.9531 53.1523L58.7617 53.5469L59.127 53.7881C59.16 53.8099 59.1935 53.8317 59.2266 53.8535L59.6084 54.1055L59.8936 53.748L69.9336 41.1279L70.292 40.6768L69.7939 40.3848C68.7319 39.7635 67.7069 39.1637 66.6475 38.5439L66.1807 38.2715L65.9453 38.7578ZM43.6211 38.1006C42.5211 38.7058 41.4687 39.2856 40.3887 39.8799L39.8799 40.1592L40.2324 40.6211C41.7869 42.6537 43.2956 44.6273 44.8379 46.6406V46.6396C45.7433 47.8234 46.6493 49.0077 47.5547 50.1914C48.46 51.375 49.3652 52.5586 50.2705 53.7422L50.5293 54.0811L50.9053 53.8789C50.9268 53.8673 50.9532 53.8533 50.9746 53.8418L51.3887 53.6182L51.1904 53.1914C48.9074 48.2557 46.6248 43.3197 44.3164 38.3291L44.0908 37.8428L43.6211 38.1006ZM48.8438 36.3555C47.6568 36.7078 46.5063 37.0492 45.3232 37.4004L44.7695 37.5645L45.0117 38.0898C46.4812 41.2668 47.9186 44.3731 49.374 47.5312L49.375 47.5322C50.22 49.3537 51.0642 51.1756 51.9092 52.9971L52.085 53.376L52.4893 53.2705C52.4986 53.2681 52.5082 53.2651 52.5176 53.2627C52.5268 53.2603 52.5366 53.2583 52.5459 53.2559L53.0088 53.1348L52.9082 52.666C51.7681 47.3736 50.6275 42.0813 49.4746 36.7295L49.3613 36.2021L48.8438 36.3555ZM60.874 37.0322C59.6524 42.2198 58.4379 47.3765 57.2236 52.5332L57.123 52.96L57.5332 53.1152C57.5666 53.1279 57.6004 53.1407 57.6338 53.1533L58.0605 53.3154L58.2607 52.9043C60.5895 48.1109 62.9185 43.3171 65.2754 38.4658L65.5244 37.9521L64.9824 37.7725C63.9685 37.4371 63.0087 37.1198 61.9941 36.7803L61.9707 36.7725L61.9463 36.7666L61.4717 36.6592L60.9883 36.5488L60.874 37.0322ZM54.292 35.7314C53.0632 35.8286 51.8744 35.9229 50.6514 36.0195L50.0811 36.0645L50.2021 36.623C51.3531 41.9651 52.486 47.2243 53.6191 52.4834L53.7109 52.9072L54.1436 52.877C54.1957 52.8733 54.141 52.8767 54.1934 52.873L54.6367 52.8418L54.6572 52.3984C54.6696 52.1386 54.6829 51.8767 54.6953 51.5459V51.5312C54.7405 46.4569 54.7862 41.3824 54.832 36.2344L54.8369 35.6885L54.292 35.7314ZM55.5654 36.2227C55.5389 39.2799 55.5131 42.257 55.4873 45.3057V52.4072L56.4746 52.5215C57.6986 47.3218 58.9276 42.0984 60.1719 36.8125L60.2988 36.2734L59.75 36.2021C58.5311 36.0438 57.3577 35.891 56.1299 35.7314L55.5703 35.6592L55.5654 36.2227Z" fill="#8002A0" stroke="black"/>
</svg>
